<mxfile host="app.diagrams.net" modified="2024-02-07T03:50:15.900Z" agent="Mozilla/5.0 (Macintosh; Intel Mac OS X 10_15_7) AppleWebKit/537.36 (KHTML, like Gecko) Chrome/121.0.0.0 Safari/537.36" version="23.1.1" etag="1_oov2mOZSHAHHRJAlDO" type="github">
  <diagram name="Page-1" id="38gJwKmWYVWGnwdvjhVK">
    <mxGraphModel>
      <root>
        <mxCell id="0" />
        <mxCell id="1" parent="0" />
      </root>
    </mxGraphModel>
  </diagram>
</mxfile>
